<svg width="400" height="400" viewBox="0 0 400 400" fill="none" xmlns="http://www.w3.org/2000/svg">
  <path d="M200 300C200 300 100 250 100 200C100 170 120 150 150 150C170 150 200 170 200 170C200 170 230 150 250 150C280 150 300 170 300 200C300 250 200 300 200 300Z" fill="#FF69B4" fill-opacity="0.1"/>
  <path d="M200 280C200 280 120 240 120 200C120 180 135 165 155 165C170 165 200 180 200 180C200 180 230 165 245 165C265 165 280 180 280 200C280 240 200 280 200 280Z" fill="#FF69B4" fill-opacity="0.2"/>
</svg>
